<svg xmlns="http://www.w3.org/2000/svg" width="191.814" height="124.264" viewBox="0 0 191.814 124.264">
  <g id="Group_64" data-name="Group 64" transform="translate(-68.552 -23.782)">
    <g id="Group_63" data-name="Group 63" transform="translate(107.989 131.46)">
      <g id="Group_62" data-name="Group 62">
        <path id="Path_71" data-name="Path 71" d="M452.613,553.575a7.419,7.419,0,0,0-14.772.992,7.216,7.216,0,0,0,.227,1.818,7.418,7.418,0,0,0,14.545-2.81Z" transform="translate(-400.069 -545.404)" fill="#e9000f"/>
        <path id="Path_72" data-name="Path 72" d="M264.846,538.8a7.67,7.67,0,1,0,7.34,9.892,7.582,7.582,0,0,0,.332-2.225A7.671,7.671,0,0,0,264.846,538.8Z" transform="translate(-257.179 -538.803)" fill="#e9000f"/>
      </g>
    </g>
    <path id="Path_73" data-name="Path 73" d="M231.517,237.3s-1.773.733-4.839,1.66a8.79,8.79,0,0,0-17.5,1.174,8.527,8.527,0,0,0,.27,2.154,68.984,68.984,0,0,1-20.59-1.1,8.689,8.689,0,0,0,.381-2.551,8.8,8.8,0,0,0-16.723-3.807,54.637,54.637,0,0,1-17.18-16.469s-19.042-32.886,18.182-68.763l3.463,4.488s-36.072,35.129-1.728,67.267c0,0,14.136,14.569,47.9,2.191Z" transform="translate(-64.786 -99.512)" fill="#16b62a"/>
    <path id="Path_74" data-name="Path 74" d="M561.19,518.74c4.671,0,9.343.014,14.014-.016.7,0,.9.2.886.889-.039,2.3-.031,4.6,0,6.893.008.6-.12.863-.786.828-1.058-.054-2.12,0-3.181-.018a2.274,2.274,0,0,1-2.4-1.891c-.232-1.2-.438-2.46.5-3.515a1.888,1.888,0,0,1,1.492-.611c.757,0,1.515-.007,2.272,0,.323,0,.531-.079.534-.46,0-.357-.149-.5-.5-.5-1.591.006-3.181.013-4.772,0-.491,0-.5.29-.495.645.007,1.843-.029,3.688.022,5.529.02.717-.27.8-.883.817-.641.018-.752-.223-.743-.786.026-1.818-.012-3.636.016-5.454.008-.544-.124-.77-.709-.759-1.565.03-3.131,0-4.7.014-.245,0-.667-.142-.671.263,0,.474.46.285.709.289q1.817.033,3.635-.011c.548-.013.755.172.742.745-.036,1.691-.049,3.384-.01,5.075.016.72-.427.583-.843.6-.438.022-.776.025-.751-.6.046-1.185-.006-2.374.022-3.56.012-.485-.134-.687-.637-.67-.756.026-1.515,0-2.272.008-.231,0-.6-.078-.585.284s.391.216.615.227c.479.023.96.023,1.439.008.434-.014.648.131.637.608q-.038,1.59-.008,3.181c.007.4-.152.526-.534.523-1.515-.013-3.031.029-4.545-.017a2.354,2.354,0,0,1-2.3-2.412c-.01-.682.024-1.365-.006-2.045s.432-.556.818-.558.837-.074.8.585,0,1.313,0,1.969a.758.758,0,0,0,.881.87c.934-.015,1.869-.018,2.8,0,.42.01.507-.187.5-.551s-.067-.587-.5-.571c-.53.02-1.062-.02-1.59.01-.507.029-.663-.191-.65-.671.026-.959-.014-1.92.027-2.878.025-.575-.194-.747-.745-.725-.882.036-1.769.045-2.65,0-.626-.033-.774.231-.766.8.023,1.818-.018,3.636.019,5.454.013.637-.254.73-.8.749-.607.021-.787-.182-.778-.771.028-1.818.014-3.636.007-5.454,0-.242.068-.523-.175-.7a.529.529,0,0,0-.51-.016c-.283.11-.207.378-.208.591-.008,1.868-.026,3.737,0,5.605.009.553-.132.769-.713.748-1.11-.039-2.222,0-3.333-.018a2.414,2.414,0,0,1-2.431-2.456c-.008-.5-.01-1.01,0-1.515a1.973,1.973,0,0,1,1.993-2.032c.756-.032,1.514-.017,2.272-.021.315,0,.6.01.614-.45.014-.5-.291-.5-.641-.5-1.212,0-2.426-.038-3.635.014-.722.031-.671-.386-.688-.864-.018-.511.087-.769.7-.766C551.746,518.751,556.468,518.74,561.19,518.74Zm11.774,4.109c-.3,0-.606.014-.907,0-.649-.036-.874.251-.874.9,0,1.972-.02,1.979,1.956,1.974,1.56,0,1.392.213,1.4-1.335C574.545,522.6,574.747,522.863,572.964,522.849Zm-21.681,1.459c0-.328-.01-.657,0-.985s-.112-.467-.437-.465c-.757.007-1.515,0-2.273.006a.5.5,0,0,0-.561.565c.032,2.2-.3,2.349,1.978,2.3C551.284,525.706,551.284,525.727,551.283,524.307Z" transform="translate(-377.881 -391.461)" fill="#16b62a"/>
    <path id="Path_75" data-name="Path 75" d="M821.349,518.613c1.843,0,3.688.037,5.529-.018.759-.022.992.248.9.95a3.211,3.211,0,0,0,0,.756c.033.309-.173.767.19.891a2.931,2.931,0,0,0,1.64,0c.078-.019.136-.2.165-.311a2.872,2.872,0,0,0,.021-.377c.071-.615-.3-1.52.184-1.782a4.981,4.981,0,0,1,2.149-.112c.558,0,.393.445.378.721-.017.317.25.876-.4.847-.663-.029-.724.3-.718.829.019,1.818-.01,3.636.017,5.454.008.553-.151.765-.728.724-.5-.036-.942.031-.894-.723.06-.956-.005-1.919.025-2.877.017-.539-.143-.793-.725-.765-.731.036-1.465.032-2.2,0-.531-.022-.642.235-.613.693a1.669,1.669,0,0,0,1.646,1.571c1.009.025.6.73.64,1.185.053.655-.494.457-.811.427a3.447,3.447,0,0,1-3.078-3.371c0-.278,0-.555,0-.833,0-1.065,0-1.079,1.051-1.222.362-.049.455-.228.458-.553,0-.347-.133-.511-.489-.509q-1.932.011-3.863,0c-.294,0-.494.081-.5.417,0,.27.036.453.373.544a2.676,2.676,0,0,1,1.983,3.471c-.185.579-.742.2-1.121.281-.284.064-.477-.072-.466-.417a10.869,10.869,0,0,0-.021-1.211c-.024-.294-.162-.57-.513-.531-.331.037-.23.348-.233.55-.016,1.086-.027,2.171-.008,3.257.008.457-.156.625-.617.616-1.161-.024-2.323.011-3.484-.02a2.409,2.409,0,0,1-2.345-2.074,7.056,7.056,0,0,1,0-2.113,1.994,1.994,0,0,1,2.065-1.821c.757-.027,1.515-.017,2.272-.006.364.005.576-.1.566-.51-.01-.388-.24-.446-.552-.445-1.212,0-2.425-.036-3.635.014-.707.029-.687-.371-.7-.859s.07-.781.7-.767c1.918.042,3.838.015,5.756.015Zm-3.156,4.1c-1.828,0-1.828,0-1.753,1.828,0,.05,0,.1,0,.151a.839.839,0,0,0,.9.893c.579.01,1.16-.023,1.737.012.517.031.755-.151.7-.681-.019-.2,0-.4,0-.6C819.779,522.717,819.779,522.717,818.193,522.717Z" transform="translate(-590.227 -391.328)" fill="#16b62a"/>
    <path id="Path_76" data-name="Path 76" d="M748.214,513.067c0-1.591.014-3.182-.009-4.773-.006-.461.088-.692.611-.689,2.551.015,5.1.017,7.651-.011.692-.008.59.419.618.849.033.5-.119.724-.673.716-1.868-.027-3.737-.01-5.606-.008-.2,0-.4,0-.605.013-.274.018-.4.162-.383.447s.187.322.406.323c.5,0,1.01.005,1.515.005,1.945,0,3.889.022,5.833-.018.627-.013.751.222.753.788,0,.584-.1.911-.778.837-.474-.051-.959,0-1.438-.011-.384-.011-.52.141-.539.534-.067,1.351-.083,1.35,1.233,1.348,1.482,0,1.482,0,1.481,1.469,0,1.035-.019,2.071.008,3.105.01.407-.136.529-.521.525-1.54-.015-3.082.028-4.621-.024a2.3,2.3,0,0,1-2.257-2.291c-.029-.706.011-1.415-.017-2.121-.024-.619.372-.6.8-.6.454-.007.791.044.752.643-.04.628-.012,1.262,0,1.893a.78.78,0,0,0,.821.881c.984.016,1.97,0,2.954.009.349,0,.473-.125.5-.483.1-1.4.111-1.4-1.246-1.4-1.482,0-1.482,0-1.481-1.513,0-1.973,0-1.973-1.968-1.971-.505,0-1.012.025-1.515-.006-.534-.032-.7.185-.69.708.023,1.843-.029,3.688.022,5.53.02.714-.305.737-.857.756-.6.021-.776-.163-.761-.761.04-1.565.013-3.131.013-4.7Z" transform="translate(-537.554 -382.659)" fill="#e9000f"/>
    <path id="Path_77" data-name="Path 77" d="M700.986,513.084c0-1.591.017-3.182-.008-4.773-.008-.487.149-.675.642-.673q3.788.022,7.576,0c.63,0,.571.389.59.806.022.471-.055.755-.638.747-1.944-.026-3.889-.01-5.834-.006a1.6,1.6,0,0,0-.6.065c-.18.075-.17.3-.138.473.061.332.339.245.547.245,1.919.006,3.84.04,5.758-.016.76-.022.925.244.913.944-.038,2.3-.032,4.6,0,6.894.007.6-.18.791-.778.768-1.109-.044-2.222.009-3.333-.019a2.383,2.383,0,0,1-2.309-1.923,6.692,6.692,0,0,1-.034-2.336,2.012,2.012,0,0,1,2.061-1.743c.757-.021,1.515-.016,2.273-.008.342,0,.5-.107.5-.481s-.151-.48-.5-.478c-1.541.008-3.081.013-4.621-.007-.5-.006-.493.292-.493.642q0,2.766-.01,5.531c0,.263.129.653-.159.752a1.948,1.948,0,0,1-1.266-.011c-.243-.088-.14-.4-.141-.621C700.981,516.266,700.985,514.675,700.986,513.084Zm5.647,1.005c-.3,0-.605.012-.907,0-.6-.028-.838.224-.845.85-.023,1.99-.012,2.023,1.979,2.022,1.309,0,1.308,0,1.305-1.334C708.161,514.081,708.161,514.081,706.633,514.089Z" transform="translate(-500.193 -382.693)" fill="#e9000f"/>
    <path id="Path_78" data-name="Path 78" d="M671.411,563.195c-.633.1-.868-.164-.878-.791-.011-.682.341-.778.9-.778.611,0,.932.163.911.859S671.941,563.266,671.411,563.195Z" transform="translate(-476.122 -425.394)" fill="#16b62a"/>
    <path id="Path_79" data-name="Path 79" d="M800.438,552.326c-.057-.562.021-.969.706-.986.65-.016.807.317.8.884-.005.542-.01.98-.769.96C800.516,553.168,800.343,552.874,800.438,552.326Z" transform="translate(-578.848 -417.258)" fill="#16b62a"/>
    <rect id="Rectangle_85" data-name="Rectangle 85" width="52.232" height="13.762" transform="translate(68.552 58.455)" fill="#e9000f"/>
    <rect id="Rectangle_86" data-name="Rectangle 86" width="52.232" height="13.762" transform="translate(208.134 58.455)" fill="#e9000f"/>
    <path id="Path_80" data-name="Path 80" d="M824.184,273.1v-57.84h15.429l-.166,57.84Z" transform="translate(-597.649 -151.447)" fill="#16b62a"/>
    <path id="Path_81" data-name="Path 81" d="M365.712,190.993c.014-1.1-.483-1.359-1.466-1.353q-7.681.041-15.361,0c-1.092-.008-1.553.347-1.506,1.475.064,1.515.016,3.036.016,4.554l-.323.2c-3.286-4.872-7.994-6.227-13.344-5.13-5.734,1.175-8.04,5.815-9.881,11.29a19.043,19.043,0,0,0-6.138-7.074c-5.483-3.805-11.731-5.2-18.231-5.254-15.559-.122-31.119-.051-46.679-.054.017.113.036.226.048.34a39.254,39.254,0,0,1-.769,10.706c-.167.96-.354,1.915-.556,2.867q.544-.334,1.1-.658c1.259-.735,1.657-.484,1.659,1.035.007,8.233.023,16.466-.019,24.7a3.052,3.052,0,0,0,1.137,2.6c2.451,2.07,4.859,4.191,7.253,6.326.606.54,1.045.622,1.635-.014a64.968,64.968,0,0,1,6.553-6.179c3.267-2.666,6.6-5.246,10.6-6.767.4-.153.88-.506,1.27-.177s.139.842.057,1.279a67.117,67.117,0,0,0-1.4,12.528c.008,4.41-.178,8.828.63,13.2.125.674.318,1.141,1.1,1.14q6.551-.009,13.1,0c.54,0,.848-.191.759-.817-.323-2.284-.424-4.587-.592-6.886-.667-9.152-.047-18.139,3.279-26.786a1.709,1.709,0,0,0-.5-2.2c-2.849-2.681-5.661-5.4-8.465-8.131a1.83,1.83,0,0,0-1.887-.572c-6.7,1.668-13.209,3.787-19.024,7.651-.315.21-.632.665-1.038.462-.493-.246-.26-.812-.261-1.232-.007-2.861.021-5.722.027-8.584.007-2.972,0-2.965,2.939-2.964q14.909,0,29.819,0a14.392,14.392,0,0,1,9.08,3.1,7.942,7.942,0,0,1,3.2,7.818c-.461,3.041-2.733,4.361-5.421,5.191a14.061,14.061,0,0,1-4.759.553c-1.009-.04-1.456.307-1.448,1.376.036,4.417.03,8.835.006,13.253-.006,1.021.453,1.321,1.4,1.221a48.091,48.091,0,0,0,12.054-2.4c2.944-1.112,5.691-2.576,7.462-5.327.6-.932.984-1,1.73-.139,4.966,5.714,11.367,7.943,18.8,7.709,1.293-.041,1.616-.552,1.6-1.734-.04-3.513.01-7.027.016-10.541.006-3.446-.019-3.311-3.413-3.82-5.2-.781-7.433-2.892-6.829-7.907.543-4.512,4.336-6.547,8.332-4.4a8.186,8.186,0,0,1,4.591,7.708q-.007,18.148,0,36.295c0,.4.015.8,0,1.2-.016.629.281.91.909.909q6.626-.009,13.253,0c.718,0,.985-.351.96-1.027-.016-.451,0-.9,0-1.355q0-22.967-.021-45.933c0-1.209.162-1.932,1.606-1.777,1.073.115,1.337-.618,1.332-1.551C365.688,197.619,365.668,194.306,365.712,190.993Z" transform="translate(-144.716 -131.167)" fill="#e9000f"/>
    <path id="Path_82" data-name="Path 82" d="M594.811,63.816V62.185c-1.182-11.014-5.427-20.587-13.834-28A41.7,41.7,0,0,0,559.7,24.366a39.127,39.127,0,0,0-17.426.882,37.618,37.618,0,0,0-18.744,12.509c-3.666,4.4-6.307,9.411-8.855,14.477A99.383,99.383,0,0,1,523.7,48.06c.043-.017.087-.031.13-.046a1.39,1.39,0,0,1,.408-1.113A27.5,27.5,0,0,1,534.3,38.794a36.744,36.744,0,0,1,14.241-3.456,26.183,26.183,0,0,1,17.01,4.579c8.174,5.735,12.053,14.049,13.758,23.575.036.2.068.4.1.6" transform="translate(-352.846)" fill="#16b62a"/>
  </g>
</svg>
