<svg xmlns="http://www.w3.org/2000/svg" width="32" height="32" viewBox="0 0 32 32">
  <path id="Path_7615" data-name="Path 7615" d="M14.379,31.19A1.19,1.19,0,1,1,13.19,30,1.19,1.19,0,0,1,14.379,31.19Z" transform="translate(-2.172 -5.895)" fill="none" stroke="currentColor" stroke-linecap="round" stroke-linejoin="round" stroke-width="2"/>
  <path id="Path_7616" data-name="Path 7616" d="M30.879,31.19A1.19,1.19,0,1,1,29.69,30,1.19,1.19,0,0,1,30.879,31.19Z" transform="translate(-5.585 -5.895)" fill="none" stroke="currentColor" stroke-linecap="round" stroke-linejoin="round" stroke-width="2"/>
  <path id="Path_7617" data-name="Path 7617" d="M1.5,1.5H6.259L9.447,17.43a2.379,2.379,0,0,0,2.379,1.915H23.391A2.379,2.379,0,0,0,25.77,17.43l1.9-9.982H7.449" transform="translate(0 0)" fill="none" stroke="currentColor" stroke-linecap="round" stroke-linejoin="round" stroke-width="2"/>
</svg>
