<svg xmlns="http://www.w3.org/2000/svg" width="32" height="32" viewBox="0 0 32 32">
  <g id="Group_5788" data-name="Group 5788" transform="translate(8128 1298)">
    <rect id="Rectangle_17793" data-name="Rectangle 17793" width="32" height="32" transform="translate(-8128 -1298)" fill="none"/>
    <g id="Group_5783" data-name="Group 5783" transform="translate(-9691 -6996)">
      <rect id="Rectangle_17723" data-name="Rectangle 17723" width="32" height="32" transform="translate(1563 5698)" fill="none"/>
      <g id="energy" transform="translate(1566 5699.992)">
        <path id="Path_7481" data-name="Path 7481" d="M183.914,213.457c-.88-.881-2.43-.7-3.276-.516a6.254,6.254,0,0,0-2.919,1.4,3.563,3.563,0,0,0-.315,4.2,5.036,5.036,0,0,0-1.4,3.175.834.834,0,1,0,1.669,0,3.354,3.354,0,0,1,.876-1.927,4.19,4.19,0,0,0,2.3.707,3.033,3.033,0,0,0,2.184-.846,6.254,6.254,0,0,0,1.4-2.919C184.615,215.887,184.795,214.337,183.914,213.457Zm-1.114,2.919a4.8,4.8,0,0,1-.951,2.1,1.9,1.9,0,0,1-2.116.088,11.082,11.082,0,0,1,1.1-.869.834.834,0,0,0-.926-1.388,13.328,13.328,0,0,0-1.249.975,1.744,1.744,0,0,1,.237-1.755,4.806,4.806,0,0,1,2.1-.951,4.507,4.507,0,0,1,.955-.115,1.232,1.232,0,0,1,.784.181c.147.147.286.732.066,1.739Z" transform="translate(-166.822 -201.684)" fill="currentColor"/>
        <path id="Path_7482" data-name="Path 7482" d="M26.466,12.778,14.688.568,14.677.557a1.879,1.879,0,0,0-2.655,0l-.011.011L.233,12.778a.834.834,0,1,0,1.2,1.159l.651-.675V24.308a2.4,2.4,0,0,0,2.4,2.4h17.73a2.4,2.4,0,0,0,2.4-2.4V13.262l.651.675a.834.834,0,1,0,1.2-1.159Zm-3.521,11.53a.731.731,0,0,1-.73.73H4.484a.731.731,0,0,1-.73-.73V11.532l9.451-9.8a.209.209,0,0,1,.288,0l9.451,9.8Z" transform="translate(0 0)" fill="currentColor"/>
      </g>
    </g>
  </g>
</svg>
