<svg xmlns="http://www.w3.org/2000/svg" width="32" height="32" viewBox="0 0 32 32">
  <g id="Group_5787" data-name="Group 5787" transform="translate(-1627 -5744)">
    <rect id="Rectangle_17722" data-name="Rectangle 17722" width="32" height="32" transform="translate(1627 5744)" fill="none"/>
    <g id="user" transform="translate(1631 5746)">
      <path id="Path_7492" data-name="Path 7492" d="M93.967,13.87a6.711,6.711,0,0,0,4.9-2.032,6.711,6.711,0,0,0,2.032-4.9,6.711,6.711,0,0,0-2.032-4.9,6.934,6.934,0,0,0-9.807,0,6.711,6.711,0,0,0-2.032,4.9,6.711,6.711,0,0,0,2.032,4.9A6.713,6.713,0,0,0,93.967,13.87ZM90.257,3.225a5.246,5.246,0,0,1,7.421,0,5.014,5.014,0,0,1,1.538,3.71,5.014,5.014,0,0,1-1.538,3.71,5.245,5.245,0,0,1-7.421,0,5.013,5.013,0,0,1-1.538-3.71,5.013,5.013,0,0,1,1.538-3.71Zm0,0" transform="translate(-82.137)" fill="currentColor"/>
      <path id="Path_7493" data-name="Path 7493" d="M23.964,255.549a17.129,17.129,0,0,0-.233-1.819,14.334,14.334,0,0,0-.447-1.829,9.037,9.037,0,0,0-.752-1.706,6.431,6.431,0,0,0-1.134-1.478,5,5,0,0,0-1.629-1.023,5.629,5.629,0,0,0-2.079-.376,2.111,2.111,0,0,0-1.127.478c-.338.22-.733.475-1.174.757a6.728,6.728,0,0,1-1.519.669,5.9,5.9,0,0,1-3.717,0,6.709,6.709,0,0,1-1.518-.669c-.437-.279-.832-.534-1.175-.757a2.108,2.108,0,0,0-1.127-.478,5.623,5.623,0,0,0-2.079.377,5,5,0,0,0-1.629,1.023,6.433,6.433,0,0,0-1.134,1.478A9.053,9.053,0,0,0,.738,251.9a14.369,14.369,0,0,0-.447,1.829,17.012,17.012,0,0,0-.233,1.82c-.038.55-.058,1.122-.058,1.7a4.781,4.781,0,0,0,1.42,3.617A5.111,5.111,0,0,0,5.079,262.2H18.943a5.112,5.112,0,0,0,3.659-1.335,4.779,4.779,0,0,0,1.42-3.617c0-.58-.02-1.152-.058-1.7Zm-2.525,4.1a3.442,3.442,0,0,1-2.5.87H5.079a3.442,3.442,0,0,1-2.5-.869,3.122,3.122,0,0,1-.9-2.395c0-.54.018-1.072.053-1.584a15.345,15.345,0,0,1,.211-1.639,12.672,12.672,0,0,1,.393-1.613,7.37,7.37,0,0,1,.612-1.387,4.767,4.767,0,0,1,.833-1.092,3.316,3.316,0,0,1,1.084-.674,3.882,3.882,0,0,1,1.329-.256c.059.031.164.091.335.2.347.226.747.484,1.189.766a8.359,8.359,0,0,0,1.907.852,7.586,7.586,0,0,0,4.755,0,8.37,8.37,0,0,0,1.908-.853c.452-.289.841-.54,1.188-.766.17-.111.276-.171.335-.2a3.884,3.884,0,0,1,1.329.256,3.321,3.321,0,0,1,1.083.674,4.754,4.754,0,0,1,.833,1.092,7.346,7.346,0,0,1,.612,1.387,12.646,12.646,0,0,1,.394,1.613,15.474,15.474,0,0,1,.211,1.639h0c.036.509.054,1.042.054,1.583a3.122,3.122,0,0,1-.9,2.395Zm0,0" transform="translate(0 -233.408)" fill="currentColor"/>
    </g>
  </g>
</svg>
